<svg xmlns="http://www.w3.org/2000/svg" width="2500" height="1633" viewBox="0 0.003 421 274.997"><g fill="#dc1354"><path d="M385.872 204.488c-19.4 0-35.17 15.77-35.17 35.127 0 19.36 15.77 35.15 35.17 35.15 19.337 0 35.128-15.79 35.128-35.15 0-19.358-15.79-35.127-35.128-35.127M264.25 202.01l-3.505 1.41c-2.372 0-4.167-.62-5.342-1.902-1.175-1.303-2.265-4.017-3.42-8.205L218.247 64.17h-65.94L121.39 193.312c-1.07 4.55-2.288 7.543-3.698 8.89l-4.98 2.093c-4.25 0-7.456-3.653-9.486-10.982L60.426 64.17H0L56.666 232.67c3.44 9.98 7.18 17.97 11.154 23.89 3.996 5.917 9.444 10.447 16.346 13.673 6.966 3.163 15.704 4.765 26.39 4.765 27.798 0 45.533-14.486 53.097-43.504l22.885-87.627 23.995 86.216c2.628 9.04 6.24 16.9 10.748 23.547 4.51 6.623 10.173 11.88 16.968 15.684 6.857 3.78 14.893 5.684 24.06 5.684 6.26 0 12.84-1.794 19.765-5.362 6.9-3.547 13.332-8.803 19.273-15.812 5.918-6.987 10.49-15.085 13.652-24.337L393.63.004h-59.08l-66.966 195.297c-1.22 3.61-2.48 5.767-3.334 6.708"/><path d="M385.872 274.766c-19.4 0-35.17-15.79-35.17-35.15 0-19.358 15.77-35.127 35.17-35.127 19.337 0 35.128 15.768 35.128 35.126 0 19.36-15.79 35.15-35.128 35.15"/></g></svg>